<?xml version="1.0" encoding="iso-8859-1"?>
<!-- Generator: Adobe Illustrator 19.0.0, SVG Export Plug-In . SVG Version: 6.00 Build 0)  -->
<svg version="1.1" id="Layer_1" xmlns="http://www.w3.org/2000/svg" xmlns:xlink="http://www.w3.org/1999/xlink" x="0px" y="0px"
	 viewBox="0 0 511.997 511.997" style="enable-background:new 0 0 511.997 511.997;" xml:space="preserve">
<path style="fill:#FFC36E;" d="M504.43,331.536c0.01,4.424-3.564,8.008-7.988,8.018l-38.469,0.06
	c-8.338-14.335-23.884-23.964-41.662-23.934c-17.788,0.03-33.304,9.73-41.582,24.114l-30.441,0.05l-0.17-88.089l159.142-0.3
	c0.681,2.583,1.031,5.265,1.041,8.008l0.04,24.024l-16.016,0.03c-4.404,0.01-7.998,3.614-7.988,8.018l0.01,8.008
	c0.01,4.404,3.624,8.008,8.028,7.998l16.016-0.03L504.43,331.536z"/>
<path style="fill:#B4E1FA;" d="M504.34,283.487l0.05,24.024l-16.016,0.03c-4.404,0.01-8.018-3.594-8.028-7.998l-0.01-8.008
	c-0.01-4.404,3.584-8.008,7.988-8.018L504.34,283.487z"/>
<path style="fill:#FFD782;" d="M503.259,251.454l-159.142,0.3l-0.06-32.033l112.114-0.21l30.361,11.331
	C494.951,235.028,500.967,242.615,503.259,251.454z"/>
<path style="fill:#464655;" d="M457.973,339.614c4.104,7.067,6.457,15.266,6.477,24.024c0.05,26.537-21.422,48.089-47.959,48.139
	c-26.537,0.05-48.089-21.422-48.139-47.959c-0.02-8.749,2.302-16.957,6.376-24.024c8.278-14.385,23.794-24.084,41.582-24.114
	C434.089,315.65,449.635,325.279,457.973,339.614z"/>
<path style="fill:#B4E1FA;" d="M438.874,154.286l17.298,65.226l-112.114,0.21l-0.16-88.089l64.255-0.12
	C422.297,131.483,434.78,140.742,438.874,154.286z"/>
<path style="fill:#FFD782;" d="M7.836,284.418l-0.33-176.179c-0.01-4.424,3.574-8.018,7.998-8.018l320.325-0.611
	c4.414,0,8.008,3.574,8.018,7.998l0.05,24.024l0.16,88.089l0.06,32.033l0.17,88.089l-104.086,0.18l-102.564,0.19
	c-8.338-14.335-23.874-23.954-41.652-23.924c-17.788,0.03-33.304,9.73-41.592,24.114l-38.439,0.06c-4.424,0-8.018-3.574-8.028-7.998
	L7.836,284.418z"/>
<path style="fill:#AFB9D2;" d="M256.258,372.037c0.01,8.809-7.177,16.036-15.986,16.046l-48.049,0.09
	c-8.809,0.02-16.036-7.177-16.046-15.986l-0.02-8.008l-0.01-8.008c-0.02-8.809,7.177-16.026,15.986-16.046l48.049-0.09
	c0.01,0,0.01,0,0.02,0c8.799,0,16.006,7.187,16.026,15.986l0.01,8.008L256.258,372.037z"/>
<path style="fill:#464655;" d="M137.638,340.215c4.114,7.057,6.467,15.266,6.487,24.024c0.05,26.537-21.422,48.099-47.959,48.139
	c-26.537,0.05-48.089-21.422-48.139-47.949c-0.02-8.749,2.302-16.947,6.366-24.024c8.288-14.385,23.804-24.084,41.592-24.114
	C113.764,316.26,129.299,325.88,137.638,340.215z"/>
<g>
	<circle style="fill:#C7CFE2;" cx="416.273" cy="364.209" r="17.017"/>
	<circle style="fill:#C7CFE2;" cx="95.947" cy="364.209" r="18.018"/>
</g>
<path d="M112.095,356.796c-0.005,0-0.01,0-0.015,0c-4.146,0.008-7.502,3.375-7.494,7.522c0.004,2.273-0.877,4.411-2.482,6.022
	c-1.604,1.61-3.739,2.5-6.012,2.504c-0.005,0-0.011,0-0.016,0c-4.684,0-8.5-3.807-8.509-8.492c-0.009-4.693,3.801-8.517,8.493-8.526
	c4.146-0.008,7.502-3.375,7.494-7.522c-0.008-4.142-3.367-7.494-7.508-7.494c-0.005,0-0.01,0-0.015,0
	c-12.971,0.024-23.504,10.597-23.48,23.568c0.024,12.957,10.572,23.481,23.523,23.48c0.014,0,0.031,0,0.045,0
	c6.283-0.012,12.186-2.471,16.621-6.921c4.435-4.452,6.87-10.365,6.859-16.647C119.594,360.148,116.235,356.796,112.095,356.796z"/>
<path d="M432.42,356.194c-0.005,0-0.01,0-0.015,0c-4.146,0.008-7.502,3.375-7.494,7.522c0.004,2.273-0.877,4.411-2.482,6.022
	c-1.604,1.61-3.739,2.5-6.012,2.504c-0.005,0-0.011,0-0.016,0c-4.684,0-8.5-3.807-8.509-8.492c-0.009-4.693,3.801-8.517,8.493-8.526
	c4.146-0.008,7.502-3.375,7.494-7.522c-0.008-4.142-3.367-7.494-7.508-7.494c-0.005,0-0.01,0-0.015,0
	c-12.971,0.024-23.504,10.597-23.48,23.568c0.024,12.957,10.572,23.481,23.523,23.48c0.014,0,0.031,0,0.045,0
	c6.283-0.012,12.186-2.471,16.621-6.921c4.434-4.452,6.87-10.365,6.859-16.647C439.92,359.546,436.559,356.194,432.42,356.194z"/>
<path d="M504.492,356.06c-0.005,0-0.01,0-0.015,0l-33.055,0.062c-0.425-3.087-1.092-6.1-2.006-9.005l27.034-0.051
	c4.145-0.008,8.038-1.629,10.964-4.566c2.925-2.936,4.532-6.835,4.524-10.979l-0.045-24.022v-0.003v-0.003l-0.09-48.046
	c-0.004-1.901-0.142-3.777-0.405-5.619c0.25-0.752,0.391-1.554,0.39-2.388c-0.004-2.134-0.902-4.053-2.333-5.418
	c-3.384-9.389-10.266-17.268-19.575-21.9c-0.234-0.116-0.474-0.221-0.72-0.312l-26.727-9.976l-16.304-61.476
	c-0.022-0.082-0.045-0.164-0.07-0.246c-5.081-16.821-20.284-28.107-37.846-28.107c-0.026,0-0.054,0-0.08,0l-56.749,0.106
	l-0.031-16.517c-0.008-4.145-1.629-8.038-4.566-10.963c-2.929-2.918-6.816-4.524-10.948-4.524c-0.01,0-0.021,0-0.032,0
	L15.483,92.708C6.931,92.725-0.016,99.699,0,108.254l0.331,176.175v0.003v0.003l0.09,48.046c0.008,4.145,1.629,8.038,4.566,10.963
	c2.929,2.918,6.816,4.525,10.948,4.525c0.01,0,0.021,0,0.032,0l27.016-0.051c-0.902,2.928-1.555,5.941-1.962,9.013l-33.047,0.061
	c-4.146,0.008-7.502,3.375-7.494,7.522c0.008,4.142,3.367,7.494,7.508,7.494c0.005,0,0.01,0,0.015,0l33.055-0.062
	c3.728,27.037,26.99,47.946,55.018,47.946c0.005,0,0.102,0,0.106,0c14.839-0.028,28.779-5.833,39.253-16.346
	c8.686-8.719,14.111-19.811,15.7-31.806l17.53-0.033l0.001,0.501c0.024,12.946,10.577,23.479,23.524,23.479c0.004,0,0.04,0,0.044,0
	l48.049-0.09c6.265-0.012,12.163-2.475,16.607-6.935c4.444-4.461,6.884-10.368,6.872-16.634l-0.001-0.501l97.62-0.184
	c3.728,27.037,26.989,47.946,55.018,47.946c0.005,0,0.102,0,0.106,0c28.087-0.053,51.317-21.05,54.945-48.152l33.054-0.062
	c4.146-0.008,7.502-3.375,7.494-7.522C511.992,359.411,508.633,356.06,504.492,356.06z M496.779,331.903
	c-0.146,0.146-0.302,0.146-0.354,0.146l-32.033,0.061c-0.741,0.001-1.455,0.114-2.131,0.315
	c-10.021-14.628-26.843-24.25-45.857-24.25c-0.005,0-0.102,0-0.106,0c-14.84,0.028-28.78,5.833-39.254,16.346
	c-2.494,2.504-4.712,5.207-6.656,8.067c-0.661-0.19-1.356-0.298-2.079-0.298c-0.005,0-0.01,0-0.015,0l-16.517,0.031l-0.137-73.074
	l145.129-0.272c0.004,0.167,0.018,0.332,0.018,0.5l0.031,16.517l-8.508,0.016c-4.136,0.008-8.027,1.631-10.956,4.571
	c-2.93,2.941-4.539,6.838-4.531,10.974l0.015,8.007c0.016,8.547,6.973,15.488,15.517,15.488c0.009,0,0.019,0,0.028,0l8.509-0.016
	l0.031,16.517C496.925,331.6,496.925,331.756,496.779,331.903z M496.866,300.017l-8.508,0.016c0,0,0,0-0.001,0
	c-0.257,0-0.501-0.242-0.502-0.501l-0.015-8.007c0-0.129,0.051-0.246,0.152-0.348c0.102-0.102,0.218-0.153,0.347-0.153l8.509-0.016
	L496.866,300.017z M491.252,243.97l-139.639,0.262l-0.032-17.017l103.244-0.194l28.694,10.71
	C486.56,239.299,489.17,241.434,491.252,243.97z M408.165,139.019c0.017,0,0.032,0,0.049,0c10.853,0,20.254,6.949,23.44,17.319
	l14.767,55.684l-94.866,0.178l-0.137-73.074L408.165,139.019z M47.987,332.892c-0.005,0-0.01,0-0.015,0l-32.035,0.061
	c-0.029-0.011-0.206,0.001-0.353-0.146c-0.146-0.146-0.147-0.303-0.147-0.354l-0.076-40.541l248.756-0.466
	c4.146-0.008,7.502-3.375,7.494-7.522c-0.008-4.142-3.367-7.494-7.508-7.494c-0.005,0-0.01,0-0.015,0l-248.756,0.466l-0.316-168.67
	c0-0.276,0.224-0.502,0.5-0.503l320.325-0.602c0.045,0.004,0.207,0,0.353,0.146c0.146,0.146,0.147,0.302,0.147,0.353l0.045,24.021
	v0.003v0.003l0.165,88.085l0,0l0,0l0.06,32.031v0.002v0.002l0.151,80.58l-98.088,0.185l-46.559,0.087c-0.007,0-0.013,0-0.02,0
	l-48.027,0.09c-0.742,0.001-1.456,0.114-2.133,0.316c-10.021-14.628-26.843-24.251-45.857-24.251c-0.005,0-0.102,0-0.106,0
	c-14.84,0.028-28.78,5.833-39.254,16.346c-2.494,2.504-4.711,5.207-6.655,8.067C49.404,332.999,48.708,332.892,47.987,332.892z
	 M124.799,392.947c-7.643,7.672-17.815,11.908-28.644,11.928l-0.078,7.508v-7.508c-22.312,0-40.497-18.152-40.539-40.465
	c-0.021-10.829,4.177-21.017,11.82-28.689c7.643-7.672,17.816-11.908,28.723-11.928c22.312,0,40.497,18.152,40.539,40.465
	C136.64,375.087,132.443,385.275,124.799,392.947z M151.098,356.723c-0.425-3.087-1.092-6.1-2.006-9.005l21.124-0.04
	c-1.039,2.682-1.586,5.556-1.58,8.511l0.001,0.5L151.098,356.723z M240.256,380.581l-48.049,0.09l-0.016,7.508v-7.508
	c-4.683,0-8.5-3.81-8.509-8.492l-0.015-7.985c0,0,0.001-0.016,0.001-0.024c0-0.008-0.001-0.016-0.001-0.016l-0.015-7.992
	c-0.004-2.254,0.882-4.388,2.495-6.007c1.61-1.616,3.736-2.51,5.986-2.517l48.08-0.09c4.682,0.002,8.497,3.81,8.505,8.493
	l0.03,16.016C248.757,376.748,244.948,380.572,240.256,380.581z M263.733,356.012c-0.006-2.999-0.583-5.866-1.618-8.506
	l82.183-0.154l19.007-0.036c-0.902,2.928-1.555,5.941-1.961,9.012l-97.612,0.184V356.012z M416.479,404.274l-0.078,7.508v-7.508
	c-22.312,0-40.497-18.152-40.539-40.465c-0.021-10.829,4.177-21.017,11.82-28.689c7.643-7.672,17.816-11.908,28.723-11.928
	c22.312,0,40.497,18.152,40.539,40.465C456.986,386.01,438.834,404.232,416.479,404.274z"/>
<path d="M200.181,356.631c-1.972,0-3.904,0.801-5.305,2.202c-1.401,1.391-2.202,3.333-2.202,5.305c0,1.972,0.801,3.914,2.202,5.305
	c1.401,1.401,3.333,2.202,5.305,2.202c1.982,0,3.914-0.801,5.315-2.202c1.391-1.391,2.192-3.333,2.192-5.305
	c0-1.972-0.801-3.914-2.192-5.305C204.095,357.432,202.163,356.631,200.181,356.631z"/>
<path d="M296.135,291.384c0.005,0,0.01,0,0.015,0l16.012-0.03c4.146-0.008,7.502-3.375,7.494-7.523
	c-0.008-4.141-3.367-7.493-7.508-7.493c-0.005,0-0.01,0-0.015,0l-16.012,0.03c-4.146,0.008-7.502,3.375-7.494,7.523
	C288.635,288.033,291.995,291.384,296.135,291.384z"/>
<g>
</g>
<g>
</g>
<g>
</g>
<g>
</g>
<g>
</g>
<g>
</g>
<g>
</g>
<g>
</g>
<g>
</g>
<g>
</g>
<g>
</g>
<g>
</g>
<g>
</g>
<g>
</g>
<g>
</g>
</svg>
