<?xml version="1.0" encoding="iso-8859-1"?>
<!-- Generator: Adobe Illustrator 19.0.0, SVG Export Plug-In . SVG Version: 6.00 Build 0)  -->
<svg version="1.1" id="Layer_1" xmlns="http://www.w3.org/2000/svg" xmlns:xlink="http://www.w3.org/1999/xlink" x="0px" y="0px"
	 viewBox="0 0 512.001 512.001" style="enable-background:new 0 0 512.001 512.001;" xml:space="preserve">
<polygon style="fill:#FFCD02;" points="74.05,230.876 74.05,154.976 10.579,154.976 10.579,355.967 74.05,355.967 350.149,355.967 
	333.223,230.876 "/>
<g>
	<polygon style="fill:#6D6E71;" points="277.432,126.469 181.242,126.469 181.242,230.879 130.116,230.879 130.116,86.016 
		269.752,86.016 	"/>
	<circle style="fill:#6D6E71;" cx="116.364" cy="351.937" r="74.05"/>
</g>
<g>
	<path style="fill:#ECF0F1;" d="M116.364,383.67c-17.499,0-31.736-14.237-31.736-31.736s14.237-31.736,31.736-31.736
		s31.736,14.237,31.736,31.736S133.863,383.67,116.364,383.67z"/>
	<circle style="fill:#ECF0F1;" cx="303.931" cy="373.094" r="52.893"/>
</g>
<path style="fill:#FFA800;" d="M501.421,411.835c-36.673,0-73.344,0-110.017,0c30.225-32.222,32.821-74.685,21.157-106.974
	L501.421,411.835z"/>
<polygon style="fill:#ECF0F1;" points="297.256,230.879 181.242,230.879 181.242,126.469 277.432,126.469 "/>
<g>
	<path style="fill:#231F20;" d="M116.364,309.621c-23.332,0-42.314,18.982-42.314,42.314s18.982,42.314,42.314,42.314
		s42.314-18.982,42.314-42.314S139.696,309.621,116.364,309.621z M116.364,373.092c-11.666,0-21.157-9.491-21.157-21.157
		c0-11.666,9.491-21.157,21.157-21.157s21.157,9.491,21.157,21.157C137.521,363.601,128.03,373.092,116.364,373.092z"/>
	<path style="fill:#231F20;" d="M303.933,362.513c-5.833,0-10.579,4.746-10.579,10.579s4.746,10.579,10.579,10.579
		s10.579-4.746,10.579-10.579S309.765,362.513,303.933,362.513z"/>
	<path style="fill:#231F20;" d="M509.558,405.075l-88.859-106.974c-3.284-3.954-8.935-4.975-13.392-2.421
		c-4.46,2.553-6.44,7.941-4.695,12.775c4.256,11.781,6.622,26.064,5.445,40.97l-57.286-67.745l-7.065-52.221
		c-0.71-5.246-5.188-9.16-10.482-9.16h-27.209L282.528,96.595h14.728c5.841,0,10.578-4.736,10.578-10.579
		s-4.737-10.579-10.578-10.579H111.074c-5.841,0-10.579,4.736-10.579,10.579s4.737,10.579,10.579,10.579h8.463v61.881
		l-42.252-13.572c-0.006-0.002-0.012-0.002-0.018-0.005c-1.185-0.489-2.896-0.501-3.207-0.501c-0.003,0-0.006,0-0.01,0H10.579
		C4.737,144.397,0,149.133,0,154.976v200.992c0,5.843,4.737,10.579,10.579,10.579h22.445c6.945,39.722,41.659,70.017,83.34,70.017
		s76.395-30.296,83.34-70.017h41.095c-0.221,2.153-0.336,4.336-0.336,6.546c0,34.998,28.473,63.471,63.471,63.471
		s63.471-28.473,63.471-63.471c0-11.574-3.129-22.424-8.563-31.778l-2.791-20.628l46.168,54.596
		c-3.931,10.173-9.923,20.142-18.527,29.315c-2.885,3.076-3.668,7.571-1.992,11.441c1.677,3.87,5.49,6.375,9.708,6.375h110.017
		c4.101,0,7.833-2.371,9.577-6.084C512.74,412.616,512.18,408.23,509.558,405.075z M170.663,220.298h-29.969v-32.804l29.969,9.626
		V220.298z M191.82,220.298v-83.251h76.852l15.807,83.251H191.82z M140.694,96.595h120.299l3.663,19.295h-83.415
		c-5.841,0-10.579,4.736-10.579,10.579v48.428l-29.969-9.626V96.595z M119.537,220.298H84.628v-50.813l34.909,11.213V220.298z
		 M116.364,415.406c-34.998,0-63.471-28.473-63.471-63.471s28.473-63.471,63.471-63.471s63.471,28.473,63.471,63.471
		S151.362,415.406,116.364,415.406z M246.838,345.389h-46.124c-3.357-43.614-39.891-78.082-84.35-78.082
		s-80.993,34.468-84.35,78.082H21.157V165.554h42.314v65.322c0,5.842,4.737,10.579,10.579,10.579h249.93l3.498,25.852h-52.437
		c-5.841,0-10.579,4.736-10.579,10.578s4.737,10.579,10.579,10.579h55.299l3.908,28.878c-9.013-4.921-19.343-7.721-30.315-7.721
		C278.862,309.621,257.145,324.235,246.838,345.389z M303.933,415.406c-23.332,0-42.314-18.982-42.314-42.314
		s18.982-42.314,42.314-42.314s42.314,18.982,42.314,42.314S327.264,415.406,303.933,415.406z M412.847,401.256
		c11.983-19.261,16.674-40.041,16.67-59.43l49.367,59.43H412.847z"/>
	<path style="fill:#231F20;" d="M237.223,267.307h-1.058c-5.841,0-10.579,4.736-10.579,10.578s4.737,10.579,10.579,10.579h1.058
		c5.841,0,10.579-4.736,10.579-10.579S243.065,267.307,237.223,267.307z"/>
</g>
<g>
</g>
<g>
</g>
<g>
</g>
<g>
</g>
<g>
</g>
<g>
</g>
<g>
</g>
<g>
</g>
<g>
</g>
<g>
</g>
<g>
</g>
<g>
</g>
<g>
</g>
<g>
</g>
<g>
</g>
</svg>
