<?xml version="1.0" encoding="iso-8859-1"?>
<!-- Generator: Adobe Illustrator 19.0.0, SVG Export Plug-In . SVG Version: 6.00 Build 0)  -->
<svg version="1.1" id="Layer_1" xmlns="http://www.w3.org/2000/svg" xmlns:xlink="http://www.w3.org/1999/xlink" x="0px" y="0px"
	 viewBox="0 0 512 512" style="enable-background:new 0 0 512 512;" xml:space="preserve">
<polygon style="fill:#6D6E71;" points="165.992,337.483 165.992,358.539 92.689,358.539 92.689,337.483 10.859,337.483 
	10.859,379.773 358.697,379.773 358.697,337.483 "/>
<polygon style="fill:#FFCD02;" points="189.779,157.591 95.461,287.411 21.411,193.273 77.963,115.438 "/>
<path style="fill:#FFA800;" d="M263.015,256.455l-50.917,70.086c-5.159,7.094-14.41,9.896-22.636,6.851l-62.294-23.048
	c-11.313-4.589-21.473-11.588-29.804-20.511l-1.903-2.421l94.318-129.821l2.876,1.089c11.059,5.17,20.849,12.677,28.705,22.002
	l41.18,52.133C267.974,239.697,268.175,249.361,263.015,256.455z"/>
<g>
	<circle style="fill:#ECF0F1;" cx="89.697" cy="371.848" r="39.647"/>
	<circle style="fill:#ECF0F1;" cx="168.991" cy="371.848" r="39.647"/>
</g>
<path style="fill:#FFCD02;" d="M480.281,290.171v89.603H358.697V178.894h70.646c12.983,0,24.317,8.775,27.584,21.335l5.17,19.898
	H407.68v70.043H480.281z"/>
<g>
	<polygon style="fill:#6D6E71;" points="480.281,290.171 407.68,290.171 407.68,220.128 462.097,220.128 	"/>
	<rect x="416.051" y="337.487" style="fill:#6D6E71;" width="85.374" height="42.29"/>
</g>
<g>
	<rect x="316.405" y="210.616" style="fill:#ECF0F1;" width="42.29" height="126.871"/>
	<circle style="fill:#ECF0F1;" cx="398.342" cy="371.848" r="39.647"/>
</g>
<g>
	<path style="fill:#231F20;" d="M162.63,266.948c-4.726-3.429-11.337-2.378-14.767,2.348l-0.188,0.26
		c-3.43,4.726-2.379,11.337,2.348,14.767c1.876,1.361,4.048,2.016,6.201,2.016c3.271,0,6.498-1.514,8.566-4.363l0.188-0.26
		C168.406,276.989,167.356,270.378,162.63,266.948z"/>
	<path style="fill:#231F20;" d="M501.427,326.91h-10.573v-36.74l-0.011-0.012c-0.001-0.884-0.102-1.772-0.329-2.645l-23.356-89.945
		c-4.477-17.221-20.029-29.247-37.816-29.247h-60.073v-27.841c0-2.979-1.257-5.82-3.461-7.824l-14.447-13.129
		c-4.322-3.928-11.009-3.608-14.935,0.714c-3.928,4.321-3.607,11.008,0.714,14.935l10.986,9.984v54.88h-31.718
		c-5.838,0-10.573,4.733-10.573,10.573v116.298h-80.937l46.672-64.242c7.907-10.876,7.606-25.846-0.732-36.408l-41.18-52.133
		c-0.069-0.088-0.138-0.173-0.21-0.259c-8.91-10.576-19.781-18.909-32.313-24.767c-0.241-0.112-3.611-1.399-3.611-1.399
		c-0.003-0.001-0.006-0.002-0.01-0.003c-0.002-0.001-0.003-0.001-0.005-0.002l-98.843-37.262l2.697-3.711
		c3.432-4.724,2.384-11.336-2.339-14.768c-4.724-3.432-11.336-2.384-14.768,2.339L2.02,201.98
		c-3.432,4.724-2.384,11.336,2.339,14.768c1.877,1.364,4.051,2.019,6.206,2.019c3.269,0,6.494-1.512,8.563-4.359l2.621-3.607
		l8.143,10.352v105.757H10.86c-5.839,0-10.573,4.733-10.573,10.573v42.29c0,5.839,4.733,10.573,10.573,10.573h32.162
		c7.384,18.558,25.515,31.718,46.673,31.718c16.104,0,30.451-7.628,39.647-19.45c9.196,11.822,23.543,19.45,39.647,19.45
		c21.158,0,39.289-13.16,46.673-31.718h136.011c7.384,18.558,25.515,31.718,46.673,31.718c21.158,0,39.289-13.16,46.673-31.718
		h56.41c5.838,0,10.573-4.733,10.573-10.573v-42.29C511.999,331.644,507.265,326.91,501.427,326.91z M466.613,279.598h-48.361V230.7
		h35.665L466.613,279.598z M446.693,202.889l1.733,6.666H407.68c-5.838,0-10.573,4.733-10.573,10.573v70.043
		c0,5.839,4.734,10.573,10.573,10.573h62.029v26.167h-48.975c-6.746-3.376-14.347-5.286-22.39-5.286
		c-10.831,0-20.863,3.458-29.075,9.311V189.467h60.073C437.504,189.467,444.639,194.987,446.693,202.889z M213.204,348.056h134.921
		v21.145H219.137C218.74,361.583,216.636,354.41,213.204,348.056z M326.979,221.185h21.145V326.91h-21.145V221.185z M209.931,183.81
		l-40.778,56.126c-3.432,4.724-2.384,11.336,2.339,14.768c1.877,1.364,4.051,2.019,6.206,2.019c3.269,0,6.494-1.512,8.563-4.359
		l37.489-51.599l30.491,38.602c2.491,3.155,2.583,7.625,0.223,10.87c-0.001,0.001-0.002,0.003-0.003,0.004l-50.913,70.081
		c-2.366,3.252-6.652,4.547-10.417,3.154l-62.136-22.99c-8.129-3.318-15.469-7.974-21.883-13.876l84.104-115.761
		C199.408,174.339,204.996,178.686,209.931,183.81z M81.779,128.175l91.297,34.418l-77.95,107.293l-60.461-76.863L81.779,128.175z
		 M51.035,248.035l36.116,45.913c0.001,0.002,0.003,0.003,0.004,0.005c0,0,2.277,2.876,2.48,3.095
		c9.455,10.126,20.745,17.896,33.558,23.093c0.1,0.041,0.202,0.08,0.304,0.118l20.994,7.768
		c-5.884,3.302-11.034,7.753-15.153,13.049c-9.196-11.822-23.543-19.45-39.647-19.45c-8.043,0-15.643,1.91-22.39,5.286H51.035
		V248.035z M21.432,348.056h24.045c-3.433,6.354-5.537,13.528-5.933,21.145H21.432V348.056z M89.694,400.918
		c-16.032,0-29.075-13.042-29.075-29.075c0-16.032,13.042-29.075,29.075-29.075s29.075,13.042,29.075,29.075
		C118.768,387.876,105.725,400.918,89.694,400.918z M168.988,400.918c-16.032,0-29.075-13.042-29.075-29.075
		c0-16.032,13.042-29.075,29.075-29.075s29.075,13.042,29.075,29.075C198.063,387.876,185.019,400.918,168.988,400.918z
		 M398.344,400.918c-16.031,0-29.075-13.042-29.075-29.075c0-16.032,13.043-29.075,29.075-29.075s29.075,13.042,29.075,29.075
		C427.419,387.876,414.375,400.918,398.344,400.918z M490.854,369.201h-42.36c-0.396-7.618-2.5-14.791-5.933-21.145h48.293V369.201z
		"/>
</g>
<g>
</g>
<g>
</g>
<g>
</g>
<g>
</g>
<g>
</g>
<g>
</g>
<g>
</g>
<g>
</g>
<g>
</g>
<g>
</g>
<g>
</g>
<g>
</g>
<g>
</g>
<g>
</g>
<g>
</g>
</svg>
