<?xml version="1.0" encoding="iso-8859-1"?>
<!-- Generator: Adobe Illustrator 19.0.0, SVG Export Plug-In . SVG Version: 6.00 Build 0)  -->
<svg version="1.1" id="Layer_1" xmlns="http://www.w3.org/2000/svg" xmlns:xlink="http://www.w3.org/1999/xlink" x="0px" y="0px"
	 viewBox="0 0 512 512" style="enable-background:new 0 0 512 512;" xml:space="preserve">
<path style="fill:#FFCD02;" d="M209.221,109.322v98.013h-88.589c-51.86,0.001-93.901,42.042-93.901,93.902v36.927h182.49v-20.562
	h111.55l25.703-41.724V109.323H209.221V109.322z"/>
<circle style="fill:#6D6E71;" cx="425.124" cy="338.166" r="64.514"/>
<rect x="209.221" y="317.604" style="fill:#FFA800;" width="292.498" height="41.124"/>
<rect x="10.281" y="317.604" style="fill:#6D6E71;" width="66.827" height="41.124"/>
<circle style="fill:#ECF0F1;" cx="114.378" cy="338.166" r="64.514"/>
<g>
	<path style="fill:#6D6E71;" d="M114.378,361.553c-12.897,0-23.39-10.493-23.39-23.39c0-12.897,10.493-23.39,23.39-23.39
		s23.39,10.493,23.39,23.39C137.767,351.06,127.274,361.553,114.378,361.553z"/>
	<polygon style="fill:#6D6E71;" points="346.474,219.159 346.474,150.446 250.345,150.446 250.345,195.683 286.501,219.159 	"/>
</g>
<g>
	<path style="fill:#231F20;" d="M501.719,307.32h-8.497c-11.77-25.892-37.851-43.952-68.097-43.952s-56.327,18.06-68.096,43.952
		h-17.847l16.047-26.05c0.998-1.621,1.527-3.488,1.527-5.392V109.323c0-5.677-4.604-10.281-10.281-10.281H209.221
		c-5.677,0-10.281,4.604-10.281,10.281v87.733h-39.582V171.01c0-1.732-0.438-3.437-1.273-4.954l-11.309-20.562
		c-2.736-4.976-8.989-6.79-13.963-4.053c-4.975,2.736-6.79,8.988-4.053,13.963l10.035,18.247v23.406h-18.164
		C63.186,197.055,16.45,243.791,16.45,301.236v6.083h-6.169C4.604,307.32,0,311.924,0,317.601v41.125
		c0,5.677,4.604,10.281,10.281,10.281h35.984c11.772,25.893,37.864,43.952,68.112,43.952c2.067,0,114.206-0.272,114.206-0.272
		c5.677,0,10.281-4.604,10.281-10.281s-4.604-10.281-10.281-10.281H166.09c11.87-11.379,20.001-26.615,22.358-43.678h10.492v10.28
		c0,5.677,4.604,10.281,10.281,10.281h147.807c11.77,25.892,37.851,43.952,68.097,43.952s56.327-18.06,68.097-43.952h8.497
		c5.677,0,10.281-4.604,10.281-10.281v-41.124C512,311.923,507.396,307.32,501.719,307.32z M425.124,283.93
		c18.453,0,34.773,9.268,44.572,23.39h-89.142C390.352,293.198,406.672,283.93,425.124,283.93z M286.501,183.346
		c-5.677,0-10.281,4.604-10.281,10.281v6.598l-15.593-10.125v-29.373h75.566v48.151h-39.411v-15.251
		C296.782,187.95,292.178,183.346,286.501,183.346z M20.562,348.444v-20.562h19.744c-0.465,3.363-0.724,6.792-0.724,10.281
		c0,3.489,0.259,6.918,0.724,10.281H20.562z M114.378,392.396c-29.905,0-54.233-24.328-54.233-54.233
		c0-29.905,24.328-54.233,54.233-54.233s54.233,24.328,54.233,54.233C168.61,368.068,144.282,392.396,114.378,392.396z
		 M188.449,327.882c-5.027-36.392-36.318-64.515-74.071-64.515c-30.247,0-56.34,18.059-68.112,43.952h-9.253v-6.082
		c0-46.108,37.511-83.618,83.619-83.618h88.589c5.677,0,10.281-4.604,10.281-10.281v-87.733h116.691v20.562h-85.847
		c-5.677,0-10.281,4.604-10.281,10.281v45.237c0,3.482,1.762,6.727,4.683,8.623l36.156,23.476c1.667,1.083,3.612,1.658,5.598,1.658
		h49.692v43.522l-21.163,34.355H209.221c-5.677,0-10.281,4.604-10.281,10.281v0.001v10.281L188.449,327.882L188.449,327.882z
		 M219.502,327.882l271.936-0.001v20.562H219.502V327.882z M425.124,392.396c-18.453,0-34.773-9.268-44.572-23.39h89.143
		C459.897,383.128,443.577,392.396,425.124,392.396z"/>
	<path style="fill:#231F20;" d="M114.378,304.492c-18.567,0-33.671,15.104-33.671,33.671c0,18.567,15.104,33.671,33.671,33.671
		s33.671-15.105,33.671-33.671S132.944,304.492,114.378,304.492z M114.378,351.272c-7.228,0-13.108-5.881-13.108-13.108
		s5.881-13.108,13.108-13.108c7.228,0,13.108,5.881,13.108,13.108S121.605,351.272,114.378,351.272z"/>
	<path style="fill:#231F20;" d="M218.988,264.91h19.192c5.677,0,10.281-4.604,10.281-10.281c0-5.677-4.604-10.281-10.281-10.281
		h-19.192c-5.677,0-10.281,4.604-10.281,10.281C208.707,260.306,213.311,264.91,218.988,264.91z"/>
	<path style="fill:#231F20;" d="M273.478,392.124h-1.028c-5.677,0-10.281,4.604-10.281,10.281s4.604,10.281,10.281,10.281h1.028
		c5.677,0,10.281-4.604,10.281-10.281S279.155,392.124,273.478,392.124z"/>
</g>
<g>
</g>
<g>
</g>
<g>
</g>
<g>
</g>
<g>
</g>
<g>
</g>
<g>
</g>
<g>
</g>
<g>
</g>
<g>
</g>
<g>
</g>
<g>
</g>
<g>
</g>
<g>
</g>
<g>
</g>
</svg>
