<?xml version="1.0" encoding="iso-8859-1"?>
<!-- Generator: Adobe Illustrator 19.0.0, SVG Export Plug-In . SVG Version: 6.00 Build 0)  -->
<svg version="1.1" id="Layer_1" xmlns="http://www.w3.org/2000/svg" xmlns:xlink="http://www.w3.org/1999/xlink" x="0px" y="0px"
	 viewBox="0 0 512 512" style="enable-background:new 0 0 512 512;" xml:space="preserve">
<path style="fill:#FFA800;" d="M247.994,374.486H44.088c-18.262,0-33.066,14.804-33.066,33.066l0,0
	c0,18.262,14.804,33.066,33.066,33.066h203.906c18.262,0,33.066-14.804,33.066-33.066l0,0
	C281.059,389.289,266.256,374.486,247.994,374.486z"/>
<rect x="74.398" y="330.394" style="fill:#6D6E71;" width="143.285" height="44.088"/>
<path style="fill:#FFCD02;" d="M251.856,330.398H31.417V98.386c0-14.913,12.08-27.004,27.004-27.004h17.084V286.31H247.16
	L251.856,330.398z"/>
<path style="fill:#ECF0F1;" d="M247.16,286.31H75.505V71.383h111.487c21.217,0,39.007,16.004,41.255,37.089L247.16,286.31z"/>
<rect x="75.5" y="231.196" style="fill:#6D6E71;" width="77.154" height="55.11"/>
<path style="fill:#FFA800;" d="M478.934,148.857h-145.49c-7.306,0-14.138,3.621-18.241,9.666L244.63,262.524l7.22,67.875h-0.003
	l0.003,0.002l93.275-137.455h111.764v177.133h44.088V170.901C500.978,158.726,491.109,148.857,478.934,148.857z"/>
<path style="fill:#FFCD02;" d="M456.89,370.077h44.088v35.806c0,19.184-15.551,34.735-34.735,34.735H403.25L456.89,370.077z"/>
<path style="fill:#231F20;" d="M478.934,137.835h-145.49c-10.971,0-21.198,5.419-27.361,14.498l-53.675,79.098l-13.202-124.129
	c-2.854-26.761-25.302-46.941-52.215-46.941H58.421c-20.967,0-38.026,17.059-38.026,38.026v232.012
	c0,6.087,4.935,11.022,11.022,11.022h31.959v22.044H44.088C19.778,363.464,0,383.242,0,407.552s19.778,44.088,44.088,44.088h203.906
	c24.31,0,44.088-19.778,44.088-44.088s-19.778-44.088-44.088-44.088h-19.288V341.42h23.15c3.126,0,6.106-1.328,8.197-3.653
	c0.335-0.373,0.632-0.772,0.909-1.18l0.01,0.002l89.994-132.623h94.902v162.396l-51.391,67.583
	c-2.535,3.333-2.963,7.816-1.101,11.568c1.861,3.752,5.686,6.126,9.875,6.126h62.993c25.23,0,45.756-20.526,45.756-45.757V170.901
	C512,152.668,497.167,137.835,478.934,137.835z M467.912,197.547l22.044-21.794v183.303h-22.044V197.547z M321.886,168.304
	l10.654,23.559L259.628,299.31l-3.611-33.938L321.886,168.304z M217.288,109.636l17.616,165.651h-71.228v-40.96l20.413-33.069
	l7.905,4.335c1.681,0.923,3.498,1.36,5.289,1.36c3.894,0,7.669-2.069,9.674-5.725c2.927-5.337,0.973-12.037-4.365-14.963
	l-34.168-18.737c-5.335-2.926-12.035-0.973-14.963,4.365c-2.927,5.337-0.973,12.037,4.365,14.963l6.91,3.789l-18.23,29.532H86.527
	V82.403h100.465C202.608,82.404,215.632,94.113,217.288,109.636z M86.527,242.223h55.105v33.066H86.527V242.223z M42.439,98.386
	c0-8.812,7.17-15.982,15.982-15.982h6.062L64.478,286.31c0,6.087,4.935,11.022,11.022,11.022h0.004h161.745l2.345,22.044H42.439
	V98.386z M270.038,407.552c0,12.155-9.889,22.044-22.044,22.044H44.088c-12.155,0-22.044-9.889-22.044-22.044
	c0-12.155,9.889-22.044,22.044-22.044h203.906C260.15,385.508,270.038,395.397,270.038,407.552z M206.661,363.464H85.42V341.42
	h121.241V363.464z M352.238,181.923l-9.969-22.044h132.389l-22.296,22.044H352.238z M489.956,405.883
	c0,13.075-10.637,23.713-23.713,23.713h-40.765l36.877-48.497h27.6V405.883z"/>
<g>
</g>
<g>
</g>
<g>
</g>
<g>
</g>
<g>
</g>
<g>
</g>
<g>
</g>
<g>
</g>
<g>
</g>
<g>
</g>
<g>
</g>
<g>
</g>
<g>
</g>
<g>
</g>
<g>
</g>
</svg>
