<?xml version="1.0" encoding="iso-8859-1"?>
<!-- Generator: Adobe Illustrator 19.0.0, SVG Export Plug-In . SVG Version: 6.00 Build 0)  -->
<svg version="1.1" id="Layer_1" xmlns="http://www.w3.org/2000/svg" xmlns:xlink="http://www.w3.org/1999/xlink" x="0px" y="0px"
	 viewBox="0 0 512 512" style="enable-background:new 0 0 512 512;" xml:space="preserve">
<rect x="121.095" y="299.733" style="fill:#6D6E71;" width="178.456" height="42.84"/>
<g>
	<path style="fill:#FFA800;" d="M206.786,299.729h-78.255v42.84H31.156v-78.245c0-25.037,20.299-45.326,45.326-45.326h95.602v32.579
		L206.786,299.729z"/>
	<path style="fill:#FFA800;" d="M376.033,251.748v14.701l-76.481,0.701v-48.151h43.732
		C361.374,218.999,376.033,233.658,376.033,251.748z"/>
</g>
<g>
	<circle style="fill:#ECF0F1;" cx="121.095" cy="354.969" r="58.423"/>
	<circle style="fill:#ECF0F1;" cx="410.025" cy="365.591" r="47.801"/>
</g>
<polygon style="fill:#6D6E71;" points="501.378,364.26 299.552,364.26 299.552,316.46 472.697,316.46 "/>
<polygon style="fill:#FFCD02;" points="443.305,316.46 299.552,316.46 299.552,267.15 376.033,266.449 "/>
<polygon style="fill:#ECF0F1;" points="241.129,240.244 241.129,299.729 206.786,299.729 172.083,251.578 172.083,240.244 "/>
<g>
	<path style="fill:#231F20;" d="M121.095,344.343c-5.857,0-10.622,4.765-10.622,10.622s4.765,10.622,10.622,10.622
		c5.857,0,10.622-4.765,10.622-10.622C131.718,349.109,126.953,344.343,121.095,344.343z"/>
	<path style="fill:#231F20;" d="M510.486,358.795l-28.681-47.801c-1.919-3.199-5.377-5.157-9.109-5.157h-25.876l-60.165-44.728
		v-9.362c0-23.915-19.456-43.371-43.371-43.371h-39.371l-18.814-18.583l4.732-5.995c3.635-4.604,2.85-11.284-1.755-14.919
		c-4.605-3.635-11.285-2.85-14.919,1.755l-10.563,13.38c-0.003,0.004-0.006,0.007-0.01,0.012l-10.672,13.519
		c-3.635,4.604-2.85,11.284,1.755,14.919c1.949,1.539,4.27,2.286,6.574,2.286c3.14,0,6.248-1.385,8.344-4.041l3.266-4.138
		l17.078,16.866v43.713v21.957h-37.178v-48.863c0-5.867-4.756-10.622-10.622-10.622h-58.423V109.233h111.889
		c5.867,0,10.622-4.756,10.622-10.622c0-5.867-4.756-10.622-10.622-10.622H150.13c-5.867,0-10.622,4.756-10.622,10.622
		c0,5.867,4.756,10.622,10.622,10.622h11.331v39.676l-66.719,59.467h-18.26c-30.85,0-55.948,25.098-55.948,55.948v67.622h-9.911
		C4.756,331.947,0,336.703,0,342.57s4.756,10.622,10.622,10.622h41.472c-0.015,0.592-0.045,1.179-0.045,1.774
		c0,38.072,30.974,69.046,69.046,69.046h92.415c5.867,0,10.622-4.756,10.622-10.622s-4.756-10.622-10.622-10.622h-42.663
		c11.934-12.417,19.293-29.26,19.293-47.801c0-0.595-0.03-1.182-0.045-1.774h98.833v11.069c0,5.867,4.756,10.622,10.622,10.622
		h52.798c4.466,27.812,28.624,49.129,57.675,49.129c29.051,0,53.21-21.317,57.675-49.129h33.677c3.827,0,7.358-2.059,9.244-5.389
		C512.507,366.164,512.456,362.077,510.486,358.795z M310.174,277.676l62.386-0.573l38.651,28.734H310.174V277.676z
		 M310.174,229.621h33.11c12.201,0,22.126,9.926,22.126,22.126v4.176l-55.237,0.507V229.621z M230.506,250.866v38.241h-18.282
		l-27.561-38.241L230.506,250.866L230.506,250.866z M161.461,177.369v31.008h-34.789L161.461,177.369z M56.01,331.947H41.778
		v-67.622c0-19.135,15.568-34.703,34.703-34.703h84.979v21.957c0,2.23,0.701,4.402,2.004,6.211l22.572,31.318h-44.204
		c-6.549-2.067-13.515-3.187-20.738-3.187C91.092,285.92,65.512,305.161,56.01,331.947z M73.295,354.966
		c0-26.357,21.443-47.801,47.801-47.801s47.801,21.443,47.801,47.801s-21.443,47.801-47.801,47.801S73.295,381.323,73.295,354.966z
		 M186.181,331.947c-2.828-7.971-7.08-15.27-12.449-21.595h115.198v21.595H186.181z M410.025,402.767
		c-17.292,0-31.864-11.866-36.001-27.884h72.004C441.889,390.899,427.317,402.767,410.025,402.767z M310.174,353.638v-26.556
		h156.508l15.934,26.556H310.174z"/>
	<path style="fill:#231F20;" d="M252.105,402.767h-1.416c-5.867,0-10.622,4.756-10.622,10.622s4.756,10.622,10.622,10.622h1.416
		c5.867,0,10.622-4.756,10.622-10.622S257.972,402.767,252.105,402.767z"/>
</g>
<g>
</g>
<g>
</g>
<g>
</g>
<g>
</g>
<g>
</g>
<g>
</g>
<g>
</g>
<g>
</g>
<g>
</g>
<g>
</g>
<g>
</g>
<g>
</g>
<g>
</g>
<g>
</g>
<g>
</g>
</svg>
